<svg width="51" height="50" viewBox="0 0 51 50" fill="none" xmlns="http://www.w3.org/2000/svg">
<g clip-path="url(#clip0_1_1085)">
<path d="M19.3846 14.2318H17.3095L14.2108 26.5651H15.7956L16.5109 23.6745H20.0814L20.7783 26.5651H22.4155L19.3846 14.2318ZM16.7191 22.4365L18.2869 15.6964H18.3563L19.8733 22.4381L16.7191 22.4365ZM23.8277 26.5651V14.2318H25.3694V26.5651H23.8277ZM24.116 28.1068H12.6691V12.6901H28.0858V20.0593C29.9105 18.881 32.1176 18.4473 34.2524 18.8475V15.7734H31.1691V12.6901C31.1667 11.8731 30.841 11.0903 30.2633 10.5126C29.6856 9.93484 28.9028 9.60921 28.0858 9.60677H25.0024V6.52344H21.9191V9.60677H18.8358V6.52344H15.7524V9.60677H12.6691C11.8521 9.60921 11.0693 9.93484 10.4916 10.5126C9.91385 11.0903 9.58821 11.8731 9.58577 12.6901V15.7734H6.50244V18.8568H9.58577V21.9401H6.50244V25.0234H9.58577V28.1068C9.58821 28.9238 9.91385 29.7066 10.4916 30.2843C11.0693 30.862 11.8521 31.1877 12.6691 31.1901H15.7524V34.2734H18.8358V31.1901H21.9191V34.2734H25.0024V31.2024C24.5136 30.236 24.2128 29.1855 24.116 28.1068Z" fill="#AD93DF"/>
<path d="M27.3123 25.7943C27.3123 24.7271 27.6288 23.6838 28.2217 22.7965C28.8146 21.9092 29.6573 21.2176 30.6433 20.8092C31.6292 20.4008 32.7142 20.2939 33.7608 20.5021C34.8075 20.7103 35.769 21.2242 36.5236 21.9788C37.2782 22.7335 37.7921 23.6949 38.0003 24.7416C38.2085 25.7883 38.1017 26.8732 37.6933 27.8592C37.2849 28.8451 36.5933 29.6878 35.7059 30.2807C34.8186 30.8736 33.7754 31.1901 32.7082 31.1901C31.9995 31.1903 31.2978 31.0509 30.643 30.7798C29.9883 30.5087 29.3934 30.1112 28.8923 29.6102C28.3912 29.1091 27.9938 28.5142 27.7227 27.8594C27.4516 27.2047 27.3121 26.5029 27.3123 25.7943ZM32.7082 34.2734C29.1068 34.2734 21.9165 36.0818 21.9165 39.6693V41.9818H43.4998V39.6693C43.4998 36.0803 36.3095 34.2734 32.7082 34.2734Z" fill="#5C27C0"/>
</g>
<defs>
<clipPath id="clip0_1_1085">
<rect width="37" height="37" fill="white" transform="translate(6.50244 6.52344)"/>
</clipPath>
</defs>
</svg>
