<svg width="51" height="50" viewBox="0 0 51 50" fill="none" xmlns="http://www.w3.org/2000/svg">
<path d="M23.3253 8.75218C21.5838 8.75218 19.9136 9.44399 18.6822 10.6754C17.4508 11.9068 16.759 13.577 16.759 15.3185C16.759 17.06 17.4508 18.7302 18.6822 19.9616C19.9136 21.193 21.5838 21.8848 23.3253 21.8848C25.0668 21.8848 26.737 21.193 27.9684 19.9616C29.1998 18.7302 29.8916 17.06 29.8916 15.3185C29.8916 13.577 29.1998 11.9068 27.9684 10.6754C26.737 9.44399 25.0668 8.75218 23.3253 8.75218ZM13.0068 15.3185C13.0068 12.5819 14.0939 9.95731 16.029 8.02222C17.9641 6.08712 20.5887 5 23.3253 5C26.0619 5 28.6865 6.08712 30.6216 8.02222C32.5567 9.95731 33.6438 12.5819 33.6438 15.3185C33.6438 18.0551 32.5567 20.6797 30.6216 22.6148C28.6865 24.5499 26.0619 25.637 23.3253 25.637C20.5887 25.637 17.9641 24.5499 16.029 22.6148C14.0939 20.6797 13.0068 18.0551 13.0068 15.3185ZM16.759 31.2653C14.7687 31.2653 12.8599 32.0559 11.4526 33.4632C10.5216 34.3943 9.86042 35.5448 9.51956 36.7932C9.22861 37.8587 10.1501 38.7696 11.2546 38.7696H22.4811V42.5218H9.25462C7.18235 42.5218 5.50244 40.8419 5.50244 38.7696C5.50244 35.7842 6.68839 32.9211 8.79941 30.81C10.9104 28.699 13.7736 27.5131 16.759 27.5131H22.3873V31.2653H16.759Z" fill="#5C27C0"/>
<path d="M35.5024 27C33.6459 27 31.8655 27.7375 30.5527 29.0503C29.2399 30.363 28.5024 32.1435 28.5024 34C28.5024 35.8565 29.2399 37.637 30.5527 38.9497C31.8655 40.2625 33.6459 41 35.5024 41C37.359 41 39.1394 40.2625 40.4522 38.9497C41.7649 37.637 42.5024 35.8565 42.5024 34C42.5024 32.1435 41.7649 30.363 40.4522 29.0503C39.1394 27.7375 37.359 27 35.5024 27ZM24.5024 34C24.5024 32.5555 24.787 31.1251 25.3398 29.7905C25.8926 28.4559 26.7028 27.2433 27.7243 26.2218C28.7457 25.2004 29.9583 24.3901 31.2929 23.8373C32.6275 23.2845 34.0579 23 35.5024 23C36.947 23 38.3774 23.2845 39.712 23.8373C41.0465 24.3901 42.2592 25.2004 43.2806 26.2218C44.3021 27.2433 45.1123 28.4559 45.6651 29.7905C46.2179 31.1251 46.5024 32.5555 46.5024 34C46.5024 36.9174 45.3435 39.7153 43.2806 41.7782C41.2177 43.8411 38.4198 45 35.5024 45C32.5851 45 29.7872 43.8411 27.7243 41.7782C25.6614 39.7153 24.5024 36.9174 24.5024 34ZM37.5024 29.504V33.172L40.3304 36L37.5024 38.828L33.5024 34.828V29.504H37.5024Z" fill="#AD93DF"/>
</svg>
