<svg width="51" height="50" viewBox="0 0 51 50" fill="none" xmlns="http://www.w3.org/2000/svg">
<path d="M40.5112 34.8834L40.5835 34.8103V34.7075V10C40.5835 8.60761 40.0304 7.27225 39.0458 6.28769C38.0612 5.30312 36.7259 4.75 35.3335 4.75H15.3335C13.9411 4.75 12.6058 5.30312 11.6212 6.28769C10.6366 7.27225 10.0835 8.60761 10.0835 10V40C10.0835 41.3924 10.6366 42.7277 11.6212 43.7123C12.6058 44.6969 13.9411 45.25 15.3335 45.25H27.5085H28.1035L27.687 44.825L26.5846 43.7L26.5839 43.6993C26.2134 43.3242 25.9474 42.8836 25.7816 42.4164L25.7225 42.25H25.546H15.3335C14.7368 42.25 14.1645 42.0129 13.7425 41.591C13.3205 41.169 13.0835 40.5967 13.0835 40V10C13.0835 9.40326 13.3205 8.83097 13.7425 8.40901C14.1645 7.98705 14.7368 7.75 15.3335 7.75H35.3335C35.9302 7.75 36.5025 7.98705 36.9245 8.40901C37.3464 8.83097 37.5835 9.40326 37.5835 10V37.2325V37.8403L38.0112 37.4084L40.5112 34.8834ZM19.778 15.6945C20.2938 15.1788 20.5835 14.4793 20.5835 13.75C20.5835 13.0207 20.2938 12.3212 19.778 11.8055C19.2623 11.2897 18.5628 11 17.8335 11C17.1042 11 16.4047 11.2897 15.889 11.8055C15.3732 12.3212 15.0835 13.0207 15.0835 13.75C15.0835 14.4793 15.3732 15.1788 15.889 15.6945C16.4047 16.2103 17.1042 16.5 17.8335 16.5C18.5628 16.5 19.2623 16.2103 19.778 15.6945ZM24.0835 12.25C23.6857 12.25 23.3041 12.408 23.0228 12.6893C22.7415 12.9706 22.5835 13.3522 22.5835 13.75C22.5835 14.1478 22.7415 14.5294 23.0228 14.8107C23.3041 15.092 23.6857 15.25 24.0835 15.25H34.0835C34.4813 15.25 34.8629 15.092 35.1442 14.8107C35.4255 14.5294 35.5835 14.1478 35.5835 13.75C35.5835 13.3522 35.4255 12.9706 35.1442 12.6893C34.8629 12.408 34.4813 12.25 34.0835 12.25H24.0835ZM24.0835 22.25C23.6857 22.25 23.3041 22.408 23.0228 22.6893C22.7415 22.9706 22.5835 23.3522 22.5835 23.75C22.5835 24.1478 22.7415 24.5294 23.0228 24.8107C23.3041 25.092 23.6857 25.25 24.0835 25.25H34.0835C34.4813 25.25 34.8629 25.092 35.1442 24.8107C35.4255 24.5294 35.5835 24.1478 35.5835 23.75C35.5835 23.3522 35.4255 22.9706 35.1442 22.6893C34.8629 22.408 34.4813 22.25 34.0835 22.25H24.0835ZM23.0228 32.6893C22.7415 32.9706 22.5835 33.3522 22.5835 33.75C22.5835 34.1478 22.7415 34.5294 23.0228 34.8107C23.3041 35.092 23.6857 35.25 24.0835 35.25H34.0835C34.4813 35.25 34.8629 35.092 35.1442 34.8107C35.4255 34.5294 35.5835 34.1478 35.5835 33.75C35.5835 33.3522 35.4255 32.9706 35.1442 32.6893C34.8629 32.408 34.4813 32.25 34.0835 32.25H24.0835C23.6857 32.25 23.3041 32.408 23.0228 32.6893ZM17.8335 26.5C18.5628 26.5 19.2623 26.2103 19.778 25.6945C20.2938 25.1788 20.5835 24.4793 20.5835 23.75C20.5835 23.0207 20.2938 22.3212 19.778 21.8055C19.2623 21.2897 18.5628 21 17.8335 21C17.1042 21 16.4047 21.2897 15.889 21.8055C15.3732 22.3212 15.0835 23.0207 15.0835 23.75C15.0835 24.4793 15.3732 25.1788 15.889 25.6945C16.4047 26.2103 17.1042 26.5 17.8335 26.5ZM17.8335 36.5C18.5628 36.5 19.2623 36.2103 19.778 35.6945C20.2938 35.1788 20.5835 34.4793 20.5835 33.75C20.5835 33.0207 20.2938 32.3212 19.778 31.8055C19.2623 31.2897 18.5628 31 17.8335 31C17.1042 31 16.4047 31.2897 15.889 31.8055C15.3732 32.3212 15.0835 33.0207 15.0835 33.75C15.0835 34.4793 15.3732 35.1788 15.889 35.6945C16.4047 36.2103 17.1042 36.5 17.8335 36.5Z" fill="#5C27C0" stroke="#5C27C0" stroke-width="0.5"/>
<path d="M45.1476 37.115C45.3745 36.8784 45.4993 36.562 45.4951 36.2342C45.491 35.9063 45.3582 35.5932 45.1253 35.3624C44.8925 35.1315 44.5783 35.0014 44.2505 35C43.9226 34.9986 43.6073 35.1261 43.3726 35.355L34.2651 44.555L30.1526 40.36C30.0383 40.2401 29.9013 40.1441 29.7496 40.0775C29.5979 40.011 29.4345 39.9753 29.2689 39.9725C29.1032 39.9697 28.9387 39.9998 28.7848 40.0611C28.6309 40.1224 28.4908 40.2137 28.3725 40.3297C28.2542 40.4457 28.1601 40.584 28.0958 40.7366C28.0314 40.8893 27.998 41.0532 27.9976 41.2188C27.9971 41.3845 28.0296 41.5486 28.0931 41.7016C28.1566 41.8546 28.2499 41.9934 28.3676 42.11L33.1901 47.03C33.3293 47.1721 33.4954 47.285 33.6787 47.3623C33.862 47.4395 34.0588 47.4796 34.2578 47.48C34.4567 47.4805 34.6537 47.4414 34.8374 47.365C35.021 47.2886 35.1877 47.1764 35.3276 47.035L45.1476 37.115Z" fill="#AD93DF"/>
</svg>
