<svg width="112" height="112" viewBox="0 0 112 112" fill="none" xmlns="http://www.w3.org/2000/svg">
<g filter="url(#filter0_d_1_795)">
<path d="M14.0024 10H98.0024V94H24.0024C18.4796 94 14.0024 89.5229 14.0024 84V10Z" fill="#5C27C0" shape-rendering="crispEdges"/>
<path d="M36.5981 21C36.0458 21 35.5981 21.4477 35.5981 22V26.7018C35.5981 27.254 35.1504 27.7018 34.5981 27.7018H26.0024C25.4502 27.7018 25.0024 28.1495 25.0024 28.7018V34.2632C25.0024 45.2456 27.9092 51.3684 34.8949 55.1754C37.4919 56.7429 39.8889 58.6962 42.0212 60.9825C43.735 63.0346 45.8251 64.6448 48.1473 65.7018L50.1149 66.3814C50.518 66.5206 50.7884 66.9001 50.7884 67.3266V73.5614C50.7884 74.1137 50.3407 74.5614 49.7884 74.5614H46.7564C41.8805 74.5614 40.2396 75.807 40.2396 79.5088V81C40.2396 81.5523 40.6873 82 41.2396 82H69.7139C70.2662 82 70.7139 81.5523 70.7139 81V79.7719C70.7139 76.1404 68.7136 74.5088 64.0877 74.5088H61.1651C60.6128 74.5088 60.1651 74.0611 60.1651 73.5088V67.3351C60.1651 66.9045 60.4407 66.5223 60.8493 66.3863L62.8531 65.7193C65.1786 64.6612 67.2696 63.0444 68.9792 60.9825C71.2037 58.6024 73.6937 56.5561 76.3868 54.8947C78.478 53.765 80.3455 52.1749 81.8785 50.219C83.4114 48.263 84.5785 45.9811 85.3103 43.5088C85.8078 40.4477 86.0381 37.3394 85.998 34.2281V28.7193C85.998 28.167 85.5502 27.7193 84.998 27.7193H76.3554C75.8031 27.7193 75.3554 27.2716 75.3554 26.7193V22C75.3554 21.4477 74.9077 21 74.3554 21H36.5981ZM54.5606 34.3178C54.9061 33.5099 56.0509 33.5084 56.3984 34.3155L58.4201 39.0096C58.5781 39.3764 58.9392 39.614 59.3386 39.614H64.0449C64.9274 39.614 65.3772 40.6738 64.7642 41.3087L60.7238 45.4928C60.4919 45.733 60.3951 46.0731 60.4659 46.3994L61.5965 51.6134C61.7822 52.4701 60.8541 53.1342 60.1031 52.6818L55.9962 50.2077C55.677 50.0153 55.2773 50.0165 54.9592 50.2107L50.8593 52.7132C50.1086 53.1714 49.1746 52.5072 49.361 51.6478L50.4875 46.4528C50.5583 46.1261 50.4612 45.7855 50.2286 45.5453L46.1788 41.3622C45.5645 40.7277 46.0141 39.6667 46.8973 39.6667H51.6131C52.0134 39.6667 52.3751 39.4279 52.5326 39.0599L54.5606 34.3178ZM30.671 35.4989C30.6147 34.9116 31.0764 34.4035 31.6664 34.4035H34.5044C35.0566 34.4035 35.5044 34.8512 35.5044 35.4035V47.6989C35.5044 48.0299 35.2893 48.3092 35.0161 48.1223C34.2957 47.6298 33.1188 45.9402 32.2069 44.0702C31.5414 42.2301 31.1151 40.2921 30.941 38.3158L30.671 35.4989ZM75.4459 35.4002C75.4477 34.8492 75.8949 34.4035 76.4459 34.4035H79.7009C80.2994 34.4035 80.7638 34.9257 80.694 35.5201L80.3719 38.2632C80.2654 41.4761 79.1147 44.5341 77.137 46.8596C77.0221 47.0354 76.8995 47.2042 76.7699 47.3654C76.2707 47.9865 75.4058 47.5515 75.4084 46.7546L75.4459 35.4002Z" stroke="#EFE5FF" stroke-width="2" stroke-linecap="round" stroke-linejoin="round"/>
</g>
<defs>
<filter id="filter0_d_1_795" x="0.00244141" y="0" width="112" height="112" filterUnits="userSpaceOnUse" color-interpolation-filters="sRGB">
<feFlood flood-opacity="0" result="BackgroundImageFix"/>
<feColorMatrix in="SourceAlpha" type="matrix" values="0 0 0 0 0 0 0 0 0 0 0 0 0 0 0 0 0 0 127 0" result="hardAlpha"/>
<feOffset dy="4"/>
<feGaussianBlur stdDeviation="7"/>
<feComposite in2="hardAlpha" operator="out"/>
<feColorMatrix type="matrix" values="0 0 0 0 0 0 0 0 0 0 0 0 0 0 0 0 0 0 0.25 0"/>
<feBlend mode="normal" in2="BackgroundImageFix" result="effect1_dropShadow_1_795"/>
<feBlend mode="normal" in="SourceGraphic" in2="effect1_dropShadow_1_795" result="shape"/>
</filter>
</defs>
</svg>
