<svg width="24" height="24" viewBox="0 0 24 24" fill="none" xmlns="http://www.w3.org/2000/svg">
<path fill-rule="evenodd" clip-rule="evenodd" d="M1.40332 11.9991C1.40332 9.1887 2.51977 6.49336 4.50705 4.50607C6.49434 2.51879 9.18967 1.40234 12.0001 1.40234C14.8106 1.40234 17.5059 2.51879 19.4932 4.50607C21.4805 6.49336 22.5969 9.1887 22.5969 11.9991C22.5969 14.8096 21.4805 17.5049 19.4932 19.4922C17.5059 21.4795 14.8106 22.5959 12.0001 22.5959C9.18967 22.5959 6.49434 21.4795 4.50705 19.4922C2.51977 17.5049 1.40332 14.8096 1.40332 11.9991ZM12.0001 2.92234C9.5928 2.92234 7.28408 3.87865 5.58185 5.58088C3.87962 7.28311 2.92332 9.59183 2.92332 11.9991C2.92332 14.4065 3.87962 16.7152 5.58185 18.4174C7.28408 20.1196 9.5928 21.0759 12.0001 21.0759C14.4074 21.0759 16.7162 20.1196 18.4184 18.4174C20.1206 16.7152 21.0769 14.4065 21.0769 11.9991C21.0769 9.59183 20.1206 7.28311 18.4184 5.58088C16.7162 3.87865 14.4074 2.92234 12.0001 2.92234ZM15.7665 8.23434C15.9165 8.38437 16.0007 8.58781 16.0007 8.79994C16.0007 9.01208 15.9165 9.21552 15.7665 9.36554L13.1313 11.9991L15.7665 14.6327C15.9167 14.783 16.0011 14.9867 16.0011 15.1991C16.0011 15.4116 15.9167 15.6153 15.7665 15.7655C15.6163 15.9158 15.4126 16.0002 15.2001 16.0002C14.9877 16.0002 14.7839 15.9158 14.6337 15.7655L12.0001 13.1303L9.36652 15.7655C9.29214 15.8399 9.20384 15.8989 9.10665 15.9392C9.00947 15.9794 8.90531 16.0002 8.80012 16.0002C8.69493 16.0002 8.59077 15.9794 8.49359 15.9392C8.3964 15.8989 8.3081 15.8399 8.23372 15.7655C8.15934 15.6912 8.10034 15.6029 8.06008 15.5057C8.01983 15.4085 7.99911 15.3043 7.99911 15.1991C7.99911 15.094 8.01983 14.9898 8.06008 14.8926C8.10034 14.7954 8.15934 14.7071 8.23372 14.6327L10.8689 11.9991L8.23372 9.36554C8.0835 9.21533 7.99911 9.01158 7.99911 8.79914C7.99911 8.5867 8.0835 8.38296 8.23372 8.23274C8.38394 8.08252 8.58768 7.99813 8.80012 7.99813C9.01256 7.99813 9.2163 8.08252 9.36652 8.23274L12.0001 10.8679L14.6337 8.23274C14.708 8.15824 14.7963 8.09913 14.8935 8.0588C14.9907 8.01847 15.0949 7.99771 15.2001 7.99771C15.3053 7.99771 15.4095 8.01847 15.5067 8.0588C15.6039 8.09913 15.6922 8.15984 15.7665 8.23434Z" fill="#E46363"/>
</svg>
