<svg width="112" height="112" viewBox="0 0 112 112" fill="none" xmlns="http://www.w3.org/2000/svg">
<g filter="url(#filter0_d_1_786)">
<g clip-path="url(#clip0_1_786)">
<path d="M13.9976 28C13.9976 22.4772 18.4747 18 23.9976 18H97.9976V102H13.9976V28Z" fill="#5C27C0"/>
<path d="M56.4976 42.3333H56.4988C58.6082 42.3359 60.4389 43.0944 61.9364 44.5845C63.4339 46.0745 64.1973 47.8973 64.1976 49.9988C64.1976 49.9992 64.1976 49.9996 64.1976 50H63.1976C63.1998 51.8356 62.5443 53.4056 61.2311 54.71C59.9179 56.0144 58.3401 56.6667 56.4976 56.6667V42.3333ZM56.4976 42.3333C54.389 42.3333 52.5589 43.0925 51.0614 44.5851C49.5648 46.0768 48.8001 47.8991 48.7976 49.9988V50C48.7976 52.1025 49.5624 53.9267 51.062 55.4189C52.5612 56.9106 54.391 57.6689 56.4976 57.6667V42.3333ZM42.0976 70V71H43.0976H69.8976H70.8976V70V68.1667C70.8976 65.2583 69.4324 62.9726 66.7263 61.3521C64.0642 59.7579 60.6294 59.0023 56.4981 59H56.4976C52.366 59 48.9307 59.7556 46.2682 61.3524C43.5629 62.9749 42.0976 65.2603 42.0976 68.1667V70ZM68.8976 83.3333V89H44.0976V83.3333V82.3333H43.0976H29.6976C28.1205 82.3333 26.7971 81.7866 25.6727 80.6678C24.5486 79.5493 23.9996 78.2334 23.9976 76.666V36.6667C23.9976 35.1026 24.5458 33.7882 25.6721 32.6695C26.7993 31.5497 28.1235 31.002 29.6982 31H83.2976C84.8741 31 86.1988 31.5475 87.3258 32.6689C88.4525 33.79 88.9995 35.1043 88.9976 36.6654V36.6667V76.6667C88.9976 78.2314 88.4499 79.5473 87.3252 80.6684C86.2012 81.7887 84.8774 82.3352 83.2988 82.3333H83.2976H69.8976H68.8976V83.3333Z" stroke="#EFE5FF" stroke-width="2"/>
</g>
</g>
<defs>
<filter id="filter0_d_1_786" x="-0.00244141" y="0" width="112" height="112" filterUnits="userSpaceOnUse" color-interpolation-filters="sRGB">
<feFlood flood-opacity="0" result="BackgroundImageFix"/>
<feColorMatrix in="SourceAlpha" type="matrix" values="0 0 0 0 0 0 0 0 0 0 0 0 0 0 0 0 0 0 127 0" result="hardAlpha"/>
<feOffset dy="-4"/>
<feGaussianBlur stdDeviation="7"/>
<feComposite in2="hardAlpha" operator="out"/>
<feColorMatrix type="matrix" values="0 0 0 0 0 0 0 0 0 0 0 0 0 0 0 0 0 0 0.25 0"/>
<feBlend mode="normal" in2="BackgroundImageFix" result="effect1_dropShadow_1_786"/>
<feBlend mode="normal" in="SourceGraphic" in2="effect1_dropShadow_1_786" result="shape"/>
</filter>
<clipPath id="clip0_1_786">
<path d="M13.9976 28C13.9976 22.4772 18.4747 18 23.9976 18H97.9976V102H13.9976V28Z" fill="white"/>
</clipPath>
</defs>
</svg>
